<svg width="114" height="114" viewBox="0 0 114 114" fill="none" xmlns="http://www.w3.org/2000/svg">
<g clip-path="url(#paint0_diamond_332_10_clip_path)" data-figma-skip-parse="true"><g transform="matrix(0.09 0.0945 -0.0945 0.09 29.5 28)"><rect x="0" y="0" width="934.602" height="629.013" fill="url(#paint0_diamond_332_10)" opacity="1" shape-rendering="crispEdges"/><rect x="0" y="0" width="934.602" height="629.013" transform="scale(1 -1)" fill="url(#paint0_diamond_332_10)" opacity="1" shape-rendering="crispEdges"/><rect x="0" y="0" width="934.602" height="629.013" transform="scale(-1 1)" fill="url(#paint0_diamond_332_10)" opacity="1" shape-rendering="crispEdges"/><rect x="0" y="0" width="934.602" height="629.013" transform="scale(-1)" fill="url(#paint0_diamond_332_10)" opacity="1" shape-rendering="crispEdges"/></g></g><rect width="114" height="114" data-figma-gradient-fill="{&#34;type&#34;:&#34;GRADIENT_DIAMOND&#34;,&#34;stops&#34;:[{&#34;color&#34;:{&#34;r&#34;:0.042529586702585220,&#34;g&#34;:0.096153847873210907,&#34;b&#34;:0.060404345393180847,&#34;a&#34;:1.0},&#34;position&#34;:0.0},{&#34;color&#34;:{&#34;r&#34;:0.056490384042263031,&#34;g&#34;:0.250,&#34;b&#34;:0.11454328894615173,&#34;a&#34;:1.0},&#34;position&#34;:1.0}],&#34;stopsVar&#34;:[{&#34;color&#34;:{&#34;r&#34;:0.042529586702585220,&#34;g&#34;:0.096153847873210907,&#34;b&#34;:0.060404345393180847,&#34;a&#34;:1.0},&#34;position&#34;:0.0},{&#34;color&#34;:{&#34;r&#34;:0.056490384042263031,&#34;g&#34;:0.250,&#34;b&#34;:0.11454328894615173,&#34;a&#34;:1.0},&#34;position&#34;:1.0}],&#34;transform&#34;:{&#34;m00&#34;:180.0,&#34;m01&#34;:-188.99998474121094,&#34;m02&#34;:33.999996185302734,&#34;m10&#34;:188.99998474121094,&#34;m11&#34;:180.0,&#34;m12&#34;:-156.49998474121094},&#34;opacity&#34;:1.0,&#34;blendMode&#34;:&#34;NORMAL&#34;,&#34;visible&#34;:true}"/>
<g clip-path="url(#paint1_diamond_332_10_clip_path)" data-figma-skip-parse="true"><g transform="matrix(0.1585 -0.069 0.0605079 0.138993 -17.5 111)"><rect x="0" y="0" width="821.088" height="489.534" fill="url(#paint1_diamond_332_10)" opacity="1" shape-rendering="crispEdges"/><rect x="0" y="0" width="821.088" height="489.534" transform="scale(1 -1)" fill="url(#paint1_diamond_332_10)" opacity="1" shape-rendering="crispEdges"/><rect x="0" y="0" width="821.088" height="489.534" transform="scale(-1 1)" fill="url(#paint1_diamond_332_10)" opacity="1" shape-rendering="crispEdges"/><rect x="0" y="0" width="821.088" height="489.534" transform="scale(-1)" fill="url(#paint1_diamond_332_10)" opacity="1" shape-rendering="crispEdges"/></g></g><path d="M20 85.1579C21.6178 82.3564 23.1636 79.5092 24.8657 76.7596C36.7774 57.5217 48.7303 38.3092 60.6438 19.0722C62.0225 16.8454 64.056 15.7522 66.4963 15.1995C66.6967 15.1538 66.8874 15.0677 67.0833 15C68.4481 15 69.8128 15 71.1775 15C71.2531 15.0492 71.3234 15.1327 71.4042 15.1441C73.5818 15.4508 75.4993 16.3805 77.4036 17.4438C80.5768 19.2163 83.8141 20.8763 87.0577 22.5187C89.4128 23.7112 91.8355 23.8474 94.253 22.6303C94.253 22.7542 94.253 22.8781 94.253 23.0029C92.1325 26.3844 90.0015 29.7589 87.8934 33.1482C82.9354 41.1169 77.9888 49.0917 73.037 57.063C72.9403 57.2194 72.8331 57.3696 72.6872 57.5876C72.1187 57.2686 71.5686 56.9593 70.9552 56.6148C77.393 46.2427 83.8018 35.9155 90.23 25.5592C84.9275 24.3896 80.4511 21.6988 75.9958 18.9667C73.102 17.1916 70.0087 16.5405 66.6607 17.2285C66.5693 17.247 66.477 17.2611 66.3874 17.2839C62.425 18.2857 61.1209 21.0758 62.8934 24.7543C63.6992 26.4257 65.4849 28.5092 66.9304 29.4126C67.6493 28.2333 68.4692 27.1006 69.0667 25.8615C70.0808 23.756 71.826 23.1391 73.9526 23.2094C76.0995 23.2806 78.1039 23.872 79.8887 25.0961C82.5083 26.8923 83.0777 29.497 81.4178 32.1992C78.9361 36.2371 76.4281 40.2583 73.9289 44.2857C71.4165 48.3351 68.9024 52.3844 66.3381 56.5137C73.2883 59.6492 79.0934 63.9138 81.8932 71.4931C80.2341 71.4931 78.7322 71.5714 77.2419 71.4756C74.863 71.3218 74.8657 71.2726 74.3138 73.611C73.6257 76.5258 72.9377 79.4416 72.174 82.4056C71.0132 74.705 66.6378 70.0616 58.9671 68.3858C54.7534 75.1752 50.5371 81.968 46.3208 88.76C46.3717 88.8452 46.4218 88.9305 46.4728 89.0148C48.1345 88.5728 49.8033 88.1545 51.451 87.6659C51.7216 87.586 51.9431 87.2221 52.1162 86.9453C55.1313 82.1077 58.134 77.2631 61.142 72.4211C61.874 71.2436 61.8775 71.2445 63.0823 71.8763C63.2423 71.9598 63.3943 72.0599 63.6333 72.2014C62.6526 73.7867 61.6983 75.3325 60.7413 76.8756C58.3256 80.7711 55.9204 84.6746 53.4722 88.55C53.2182 88.9524 52.7507 89.3154 52.3016 89.4832C50.1205 90.2978 47.8815 90.8708 45.5272 90.9086C45.239 90.913 44.8559 91.1819 44.6871 91.4393C43.7688 92.8375 42.8734 94.2523 42.0289 95.6952C40.868 97.6786 39.1703 98.9071 36.9707 99.4879C36.8292 99.5257 36.7 99.611 36.5647 99.6742C35.0137 99.6742 33.4627 99.6742 31.9125 99.6742C31.786 99.6092 31.6665 99.5187 31.5329 99.4844C28.3571 98.6593 25.697 96.9931 23.4711 94.5959C21.7496 92.7417 20.6705 90.5518 20.0026 88.1361C20 87.1431 20 86.1501 20 85.1579ZM37.092 60.9295C36.911 61.1826 36.8345 61.2784 36.7703 61.3821C32.1138 68.8815 27.4713 76.3896 22.7901 83.8723C21.9368 85.2361 21.7927 86.6527 22.1468 88.1422C23.3894 93.3674 29.1576 97.8745 34.5488 97.799C37.0577 97.7638 39.0349 96.784 40.4049 94.522C43.8224 88.8821 47.3454 83.3055 50.8236 77.7016C51.9607 75.8694 53.0864 74.031 54.3166 72.0345C50.2778 72.9176 46.7681 72.0055 43.5535 69.8393C40.3636 67.6899 38.1008 64.8304 37.092 60.9295ZM60.2914 23.546C60.0436 23.9203 59.852 24.1954 59.6745 24.481C55.6242 31.0067 51.6083 37.5535 47.5062 44.0467C46.4113 45.7805 46.2294 47.5196 46.9333 49.3465C48.8868 54.417 52.6426 57.36 57.9697 58.1333C61.0234 58.5771 63.4576 57.5225 65.1588 54.6771C68.9244 48.379 72.8665 42.1863 76.7348 35.9498C76.8886 35.7019 77.0257 35.4436 77.2006 35.1378C68.8198 34.6044 62.6008 30.3476 60.2914 23.546ZM68.5676 30.6016C70.2443 31.7624 72.4921 32.759 74.2558 33.0059C75.61 33.1957 76.9694 33.2133 78.241 32.5164C80.8861 31.0673 81.0337 28.2017 78.5073 26.5988C76.8104 25.5223 74.9325 25.0118 72.9315 25.2631C72.3586 25.3352 71.6494 25.6919 71.3278 26.1471C70.333 27.5584 69.4938 29.0796 68.5676 30.6016Z" data-figma-gradient-fill="{&#34;type&#34;:&#34;GRADIENT_DIAMOND&#34;,&#34;stops&#34;:[{&#34;color&#34;:{&#34;r&#34;:0.60000002384185791,&#34;g&#34;:0.86666667461395264,&#34;b&#34;:0.80000001192092896,&#34;a&#34;:1.0},&#34;position&#34;:0.0},{&#34;color&#34;:{&#34;r&#34;:0.71241968870162964,&#34;g&#34;:1.0,&#34;b&#34;:0.53365385532379150,&#34;a&#34;:1.0},&#34;position&#34;:0.77254176139831543}],&#34;stopsVar&#34;:[{&#34;color&#34;:{&#34;r&#34;:0.60000002384185791,&#34;g&#34;:0.86666667461395264,&#34;b&#34;:0.80000001192092896,&#34;a&#34;:1.0},&#34;position&#34;:0.0},{&#34;color&#34;:{&#34;r&#34;:0.71241968870162964,&#34;g&#34;:1.0,&#34;b&#34;:0.53365385532379150,&#34;a&#34;:1.0},&#34;position&#34;:0.77254176139831543}],&#34;transform&#34;:{&#34;m00&#34;:317.0,&#34;m01&#34;:121.01571655273438,&#34;m02&#34;:-236.50785827636719,&#34;m10&#34;:-138.0,&#34;m11&#34;:277.98535156250,&#34;m12&#34;:41.007335662841797},&#34;opacity&#34;:1.0,&#34;blendMode&#34;:&#34;NORMAL&#34;,&#34;visible&#34;:true}"/>
<defs>
<clipPath id="paint0_diamond_332_10_clip_path"><rect width="114" height="114"/></clipPath><clipPath id="paint1_diamond_332_10_clip_path"><path d="M20 85.1579C21.6178 82.3564 23.1636 79.5092 24.8657 76.7596C36.7774 57.5217 48.7303 38.3092 60.6438 19.0722C62.0225 16.8454 64.056 15.7522 66.4963 15.1995C66.6967 15.1538 66.8874 15.0677 67.0833 15C68.4481 15 69.8128 15 71.1775 15C71.2531 15.0492 71.3234 15.1327 71.4042 15.1441C73.5818 15.4508 75.4993 16.3805 77.4036 17.4438C80.5768 19.2163 83.8141 20.8763 87.0577 22.5187C89.4128 23.7112 91.8355 23.8474 94.253 22.6303C94.253 22.7542 94.253 22.8781 94.253 23.0029C92.1325 26.3844 90.0015 29.7589 87.8934 33.1482C82.9354 41.1169 77.9888 49.0917 73.037 57.063C72.9403 57.2194 72.8331 57.3696 72.6872 57.5876C72.1187 57.2686 71.5686 56.9593 70.9552 56.6148C77.393 46.2427 83.8018 35.9155 90.23 25.5592C84.9275 24.3896 80.4511 21.6988 75.9958 18.9667C73.102 17.1916 70.0087 16.5405 66.6607 17.2285C66.5693 17.247 66.477 17.2611 66.3874 17.2839C62.425 18.2857 61.1209 21.0758 62.8934 24.7543C63.6992 26.4257 65.4849 28.5092 66.9304 29.4126C67.6493 28.2333 68.4692 27.1006 69.0667 25.8615C70.0808 23.756 71.826 23.1391 73.9526 23.2094C76.0995 23.2806 78.1039 23.872 79.8887 25.0961C82.5083 26.8923 83.0777 29.497 81.4178 32.1992C78.9361 36.2371 76.4281 40.2583 73.9289 44.2857C71.4165 48.3351 68.9024 52.3844 66.3381 56.5137C73.2883 59.6492 79.0934 63.9138 81.8932 71.4931C80.2341 71.4931 78.7322 71.5714 77.2419 71.4756C74.863 71.3218 74.8657 71.2726 74.3138 73.611C73.6257 76.5258 72.9377 79.4416 72.174 82.4056C71.0132 74.705 66.6378 70.0616 58.9671 68.3858C54.7534 75.1752 50.5371 81.968 46.3208 88.76C46.3717 88.8452 46.4218 88.9305 46.4728 89.0148C48.1345 88.5728 49.8033 88.1545 51.451 87.6659C51.7216 87.586 51.9431 87.2221 52.1162 86.9453C55.1313 82.1077 58.134 77.2631 61.142 72.4211C61.874 71.2436 61.8775 71.2445 63.0823 71.8763C63.2423 71.9598 63.3943 72.0599 63.6333 72.2014C62.6526 73.7867 61.6983 75.3325 60.7413 76.8756C58.3256 80.7711 55.9204 84.6746 53.4722 88.55C53.2182 88.9524 52.7507 89.3154 52.3016 89.4832C50.1205 90.2978 47.8815 90.8708 45.5272 90.9086C45.239 90.913 44.8559 91.1819 44.6871 91.4393C43.7688 92.8375 42.8734 94.2523 42.0289 95.6952C40.868 97.6786 39.1703 98.9071 36.9707 99.4879C36.8292 99.5257 36.7 99.611 36.5647 99.6742C35.0137 99.6742 33.4627 99.6742 31.9125 99.6742C31.786 99.6092 31.6665 99.5187 31.5329 99.4844C28.3571 98.6593 25.697 96.9931 23.4711 94.5959C21.7496 92.7417 20.6705 90.5518 20.0026 88.1361C20 87.1431 20 86.1501 20 85.1579ZM37.092 60.9295C36.911 61.1826 36.8345 61.2784 36.7703 61.3821C32.1138 68.8815 27.4713 76.3896 22.7901 83.8723C21.9368 85.2361 21.7927 86.6527 22.1468 88.1422C23.3894 93.3674 29.1576 97.8745 34.5488 97.799C37.0577 97.7638 39.0349 96.784 40.4049 94.522C43.8224 88.8821 47.3454 83.3055 50.8236 77.7016C51.9607 75.8694 53.0864 74.031 54.3166 72.0345C50.2778 72.9176 46.7681 72.0055 43.5535 69.8393C40.3636 67.6899 38.1008 64.8304 37.092 60.9295ZM60.2914 23.546C60.0436 23.9203 59.852 24.1954 59.6745 24.481C55.6242 31.0067 51.6083 37.5535 47.5062 44.0467C46.4113 45.7805 46.2294 47.5196 46.9333 49.3465C48.8868 54.417 52.6426 57.36 57.9697 58.1333C61.0234 58.5771 63.4576 57.5225 65.1588 54.6771C68.9244 48.379 72.8665 42.1863 76.7348 35.9498C76.8886 35.7019 77.0257 35.4436 77.2006 35.1378C68.8198 34.6044 62.6008 30.3476 60.2914 23.546ZM68.5676 30.6016C70.2443 31.7624 72.4921 32.759 74.2558 33.0059C75.61 33.1957 76.9694 33.2133 78.241 32.5164C80.8861 31.0673 81.0337 28.2017 78.5073 26.5988C76.8104 25.5223 74.9325 25.0118 72.9315 25.2631C72.3586 25.3352 71.6494 25.6919 71.3278 26.1471C70.333 27.5584 69.4938 29.0796 68.5676 30.6016Z"/></clipPath><linearGradient id="paint0_diamond_332_10" x1="0" y1="0" x2="500" y2="500" gradientUnits="userSpaceOnUse">
<stop stop-color="#0B190F"/>
<stop offset="1" stop-color="#0E401D"/>
</linearGradient>
<linearGradient id="paint1_diamond_332_10" x1="0" y1="0" x2="500" y2="500" gradientUnits="userSpaceOnUse">
<stop stop-color="#99DDCC"/>
<stop offset="0.772542" stop-color="#B6FF88"/>
</linearGradient>
</defs>
</svg>
